<?xml version="1.0" encoding="utf-8"?>
<!-- Generator: Adobe Illustrator 24.2.0, SVG Export Plug-In . SVG Version: 6.00 Build 0)  -->
<svg version="1.1" id="Layer_1" xmlns="http://www.w3.org/2000/svg" xmlns:xlink="http://www.w3.org/1999/xlink" x="0px" y="0px"
	 viewBox="0 0 720 140" style="enable-background:new 0 0 720 140;" xml:space="preserve">
<style type="text/css">
	.st0{fill:#1497AB;}
	.st1{fill:#FFFFFF;}
	.st2{font-family:'Enviro-Regular';}
	.st3{font-size:42.4402px;}
	.st4{fill:url(#SVGID_1_);}
	.st5{font-family:'Futura-Medium';}
	.st6{font-size:21.6916px;}
	.st7{letter-spacing:-1;}
	.st8{fill:none;stroke:#34007C;stroke-width:2;stroke-miterlimit:10;}
</style>
<polygon class="st0" points="13.3,125.4 81.4,7.5 149.4,125.4 "/>
<rect x="66.9" y="74" class="st1" width="29" height="51.9"/>
<rect x="55.4" y="58.9" class="st1" width="51.9" height="9.1"/>
<text transform="matrix(1 0 0 1 158.8579 125.8728)" class="st2 st3">ALL TRADES MECHANICAL</text>
<g>
	<radialGradient id="SVGID_1_" cx="692.6517" cy="108.4253" r="17.4476" gradientUnits="userSpaceOnUse">
		<stop  offset="0" style="stop-color:#FFFFFF"/>
		<stop  offset="0.1168" style="stop-color:#EBF6F8"/>
		<stop  offset="0.3563" style="stop-color:#B7DFE5"/>
		<stop  offset="0.6938" style="stop-color:#64BBC8"/>
		<stop  offset="1" style="stop-color:#1497AB"/>
	</radialGradient>
	<circle class="st4" cx="692.7" cy="108.4" r="17.4"/>
	<text transform="matrix(1 0 0 1 679.1725 115.8463)" class="st5 st6 st7">Inc</text>
</g>
<path class="st8" d="M210.7,74.2c-9.4-36.8-61.4-55.3-116-41.3S3.5,88.2,13,125"/>
<path class="st8" d="M209.6,71c-9.4-36.8-61.4-55.3-116-41.3S2.4,84.9,11.9,121.7"/>
<path class="st8" d="M208.9,67.7c-9.4-36.8-61.4-55.3-116-41.3S1.7,81.6,11.2,118.5"/>
</svg>
